<svg xmlns="http://www.w3.org/2000/svg" xmlns:xlink="http://www.w3.org/1999/xlink" width="1024" height="1024" viewBox="0 0 1024 1024"><defs><clipPath id="b"><rect width="1024" height="1024"/></clipPath></defs><g id="a" clip-path="url(#b)"><g transform="translate(128 128)"><g transform="translate(128 64)"><rect width="64" height="64" transform="translate(256 576)" fill="#fff"/><rect width="64" height="64" transform="translate(256 512)" fill="#fff"/><rect width="64" height="64" transform="translate(512 384)" fill="#fff"/><rect width="64" height="64" transform="translate(256 448)" fill="#fff"/><rect width="64" height="64" transform="translate(384 384)" fill="#fff"/><rect width="64" height="64" transform="translate(448 320)" fill="#fff"/><rect width="64" height="64" transform="translate(128 320)" fill="#fff"/><rect width="64" height="64" transform="translate(448 256)" fill="#fff"/><rect width="64" height="64" transform="translate(320 256)" fill="#fff"/><rect width="64" height="64" transform="translate(128 256)" fill="#fff"/><rect width="64" height="64" transform="translate(0 256)" fill="#fff"/><rect width="64" height="64" transform="translate(512 192)" fill="#fff"/><rect width="64" height="64" transform="translate(192 192)" fill="#fff"/><rect width="64" height="64" transform="translate(448 128)" fill="#fff"/><rect width="64" height="64" transform="translate(320 128)" fill="#fff"/><rect width="64" height="64" transform="translate(64 128)" fill="#fff"/><rect width="64" height="64" transform="translate(384 64)" fill="#fff"/><rect width="64" height="64" transform="translate(128 64)" fill="#fff"/><rect width="64" height="64" transform="translate(320)" fill="#fff"/><rect width="64" height="64" transform="translate(192)" fill="#fff"/></g><g transform="translate(64 64)"><rect width="64" height="64" transform="translate(256 576)"/><rect width="64" height="64" transform="translate(256 512)"/><rect width="64" height="64" transform="translate(256 448)"/><rect width="64" height="64" transform="translate(512 384)"/><rect width="64" height="64" transform="translate(384 384)"/><rect width="64" height="64" transform="translate(320 384)"/><rect width="64" height="64" transform="translate(256 384)"/><rect width="64" height="64" transform="translate(192 384)"/><rect width="64" height="64" transform="translate(128 384)"/><rect width="64" height="64" transform="translate(448 320)"/><rect width="64" height="64" transform="translate(384 320)"/><rect width="64" height="64" transform="translate(320 320)"/><rect width="64" height="64" transform="translate(256 320)"/><rect width="64" height="64" transform="translate(128 320)"/><rect width="64" height="64" transform="translate(64 320)"/><rect width="64" height="64" transform="translate(448 256)"/><rect width="64" height="64" transform="translate(320 256)"/><rect width="64" height="64" transform="translate(256 256)"/><rect width="64" height="64" transform="translate(128 256)"/><rect width="64" height="64" transform="translate(0 256)"/><rect width="64" height="64" transform="translate(512 192)"/><rect width="64" height="64" transform="translate(448 192)"/><rect width="64" height="64" transform="translate(384 192)"/><rect width="64" height="64" transform="translate(320 192)"/><rect width="64" height="64" transform="translate(192 192)"/><rect width="64" height="64" transform="translate(128 192)"/><rect width="64" height="64" transform="translate(64 192)"/><rect width="64" height="64" transform="translate(448 128)"/><rect width="64" height="64" transform="translate(320 128)"/><rect width="64" height="64" transform="translate(256 128)"/><rect width="64" height="64" transform="translate(192 128)"/><rect width="64" height="64" transform="translate(64 128)"/><rect width="64" height="64" transform="translate(0 128)"/><rect width="64" height="64" transform="translate(384 64)"/><rect width="64" height="64" transform="translate(320 64)"/><rect width="64" height="64" transform="translate(256 64)"/><rect width="64" height="64" transform="translate(128 64)"/><rect width="64" height="64" transform="translate(64 64)"/><rect width="64" height="64" transform="translate(320)"/><rect width="64" height="64" transform="translate(192)"/></g><rect width="64" height="64" transform="translate(640 704)" fill="#d71920"/><rect width="64" height="64" transform="translate(576 704)" fill="#d71920"/><rect width="64" height="64" transform="translate(512 704)" fill="#d71920"/><rect width="64" height="64" transform="translate(448 704)" fill="#d71920"/><rect width="64" height="64" transform="translate(640 640)" fill="#d71920"/><rect width="64" height="64" transform="translate(576 640)" fill="#d71920"/><rect width="64" height="64" transform="translate(512 640)" fill="#d71920"/><rect width="64" height="64" transform="translate(448 640)" fill="#d71920"/><rect width="64" height="64" transform="translate(256 640)" fill="#d71920"/><rect width="64" height="64" transform="translate(192 640)" fill="#d71920"/><rect width="64" height="64" transform="translate(128 640)" fill="#d71920"/><rect width="64" height="64" transform="translate(64 640)" fill="#d71920"/><rect width="64" height="64" transform="translate(0 640)" fill="#d71920"/><rect width="64" height="64" transform="translate(640 576)" fill="#d71920"/><rect width="64" height="64" transform="translate(576 576)" fill="#d71920"/><rect width="64" height="64" transform="translate(512 576)" fill="#d71920"/><rect width="64" height="64" transform="translate(448 576)" fill="#d71920"/><rect width="64" height="64" transform="translate(256 576)" fill="#d71920"/><rect width="64" height="64" transform="translate(192 576)" fill="#d71920"/><rect width="64" height="64" transform="translate(128 576)" fill="#d71920"/><rect width="64" height="64" transform="translate(64 576)" fill="#d71920"/><rect width="64" height="64" transform="translate(0 576)" fill="#d71920"/><rect width="64" height="64" transform="translate(640 512)" fill="#d71920"/><rect width="64" height="64" transform="translate(576 512)" fill="#d71920"/><rect width="64" height="64" transform="translate(512 512)" fill="#d71920"/><rect width="64" height="64" transform="translate(448 512)" fill="#d71920"/><rect width="64" height="64" transform="translate(256 512)" fill="#d71920"/><rect width="64" height="64" transform="translate(192 512)" fill="#d71920"/><rect width="64" height="64" transform="translate(128 512)" fill="#d71920"/><rect width="64" height="64" transform="translate(64 512)" fill="#d71920"/><rect width="64" height="64" transform="translate(0 512)" fill="#d71920"/><rect width="64" height="64" transform="translate(128 448)" fill="#d71920"/><rect width="64" height="64" transform="translate(64 448)" fill="#d71920"/><rect width="64" height="64" transform="translate(0 448)" fill="#d71920"/><rect width="64" height="64" transform="translate(704 384)" fill="#d71920"/><rect width="64" height="64" transform="translate(640 384)" fill="#d71920"/><rect width="64" height="64" transform="translate(64 384)" fill="#d71920"/><rect width="64" height="64" transform="translate(0 384)" fill="#d71920"/><rect width="64" height="64" transform="translate(704 320)" fill="#d71920"/><rect width="64" height="64" transform="translate(640 320)" fill="#d71920"/><rect width="64" height="64" transform="translate(640 192)" fill="#d71920"/><rect width="64" height="64" transform="translate(640 128)" fill="#d71920"/><rect width="64" height="64" transform="translate(576 128)" fill="#d71920"/><rect width="64" height="64" transform="translate(64 128)" fill="#d71920"/><rect width="64" height="64" transform="translate(640 64)" fill="#d71920"/><rect width="64" height="64" transform="translate(576 64)" fill="#d71920"/><rect width="64" height="64" transform="translate(512 64)" fill="#d71920"/><rect width="64" height="64" transform="translate(192 64)" fill="#d71920"/><rect width="64" height="64" transform="translate(128 64)" fill="#d71920"/><rect width="64" height="64" transform="translate(64 64)" fill="#d71920"/><rect width="64" height="64" transform="translate(192)" fill="#d71920"/><rect width="64" height="64" transform="translate(128)" fill="#d71920"/><rect width="64" height="64" transform="translate(64)" fill="#d71920"/></g></g></svg>